<svg width="16" height="16" viewBox="0 0 16 16" fill="none" xmlns="http://www.w3.org/2000/svg">
<g clip-path="url(#clip0_28_7)">
<path d="M9.53124 0.03125L11.1636 0.042C11.1944 0.065875 11.2192 0.0815 11.2456 0.09325C11.5415 0.227 11.8622 0.32275 12.1289 0.5005C12.9019 1.01425 13.6567 1.55563 14.4111 2.09675C14.7617 2.34763 15.1074 2.60887 15.4306 2.893C15.6709 3.104 15.7787 3.40338 15.7794 3.72263L15.7787 13.769C15.7784 13.9091 15.7544 14.0532 15.7154 14.188C15.5381 14.8022 15.145 15.2226 14.5264 15.3868C14.2001 15.4731 13.8555 15.5 13.5171 15.5279C12.9892 15.5717 12.4595 15.5932 11.9306 15.625L10.9301 15.6875L9.32811 15.7817L8.34324 15.8433L6.72561 15.937L5.88961 15.9712C5.86274 15.9726 5.83786 16.0103 5.81249 16.0312C5.17624 16.0312 4.54049 16.0312 3.89886 16.021C3.86811 15.9966 3.84474 15.977 3.81736 15.9692C3.42961 15.8569 3.10449 15.6426 2.85449 15.3315C2.50824 14.9014 2.17924 14.458 1.84624 14.0176C1.43699 13.4765 1.01711 12.9434 0.630364 12.3868C0.403043 12.0615 0.281286 11.6742 0.281614 11.2774C0.280524 8.31025 0.280899 5.34312 0.282739 2.376C0.282739 2.2905 0.297739 2.20412 0.312489 2.11912C0.467739 1.20562 1.14399 0.71825 1.94824 0.627875C2.36574 0.581 2.78611 0.56 3.20561 0.53225L4.31436 0.46825L4.79099 0.437L6.22849 0.313L7.02536 0.2505L8.34524 0.15675L9.45399 0.09125C9.48099 0.089375 9.50586 0.05225 9.53124 0.03125ZM3.24311 14.273C3.30961 14.3594 3.38374 14.4414 3.44186 14.5332C3.72361 14.9741 4.12749 15.1343 4.64061 15.1001L8.11674 14.8931L12.0287 14.6567L13.9765 14.5312C14.5537 14.4849 14.8325 14.1729 14.8437 13.5938V13.4688L14.8481 3.98587C14.8486 3.70025 14.75 3.5005 14.5215 3.34087L11.7685 1.40087C11.3256 1.07862 10.8555 0.92825 10.311 0.97125L7.22799 1.19925L4.00436 1.437L1.98099 1.59475C1.57224 1.63225 1.31886 1.88225 1.24561 2.28325C1.2278 2.38561 1.21914 2.48935 1.21974 2.59325L1.21136 10.8735C1.20849 11.416 1.37449 11.8673 1.69924 12.2823L3.24311 14.273Z" fill="white"/>
<path d="M3.23596 14.2646L1.69934 12.2821C1.37459 11.8671 1.20859 11.416 1.21146 10.8735L1.21984 2.59325C1.21984 2.48975 1.22759 2.38475 1.24571 2.28325C1.31896 1.88238 1.57234 1.63238 1.98109 1.59475L4.00446 1.437L7.22821 1.19925L10.3111 0.971251C10.8556 0.928251 11.3257 1.07863 11.7686 1.40088C12.6763 2.0615 13.6011 2.69875 14.5216 3.34088C14.7501 3.5005 14.8487 3.70025 14.8482 3.98588L14.8438 13.4693V13.5943C14.8326 14.1729 14.5538 14.4849 13.9766 14.5313C13.3282 14.5835 12.6783 14.6173 12.0288 14.6568L8.11684 14.893L4.64071 15.1001C4.12759 15.1343 3.72371 14.9741 3.44196 14.5333C3.38384 14.4414 3.30971 14.3594 3.23596 14.2646ZM4.03671 8.51563V12.7016L4.03771 13.4824C4.04446 13.8325 4.21596 14.0069 4.56596 14.0269C4.65384 14.0318 4.74271 14.0288 4.83109 14.0234L7.76134 13.8506L13.357 13.5308C13.7057 13.5113 13.8668 13.3584 13.8995 13.0128C13.9058 12.9506 13.9038 12.8878 13.9038 12.8253L13.9043 4.76563C13.9043 4.71875 13.9058 4.67188 13.903 4.625C13.882 4.30425 13.7442 4.17338 13.4255 4.19038L10.5416 4.3565C9.19081 4.43508 7.84006 4.51417 6.48934 4.59375L4.46346 4.71538C4.20521 4.73188 4.08846 4.84325 4.04946 5.09575C4.04023 5.16272 4.03613 5.23029 4.03721 5.29788L4.03671 8.51563ZM11.1832 1.92475C10.9386 1.792 10.673 1.748 10.3995 1.76313C9.97909 1.78613 9.55871 1.82075 9.13821 1.85113L3.14459 2.28663C2.96346 2.29975 2.78134 2.31288 2.60259 2.34525C2.54259 2.356 2.46684 2.4165 2.44834 2.47125C2.43459 2.50975 2.49521 2.5875 2.53959 2.63C2.62171 2.7085 2.71634 2.77438 2.80584 2.84525C3.01821 3.01275 3.24421 3.1655 3.43909 3.35063C3.80871 3.70163 4.23884 3.78275 4.73159 3.74713L8.61096 3.50388L12.7872 3.25338C12.8253 3.2515 12.8635 3.23975 12.9473 3.22413C12.8707 3.1445 12.8262 3.0835 12.7682 3.0405C12.5636 2.8894 12.3571 2.74097 12.1486 2.59525C11.8283 2.36959 11.5065 2.14608 11.1832 1.92475Z" fill="black"/>
<path d="M4.03653 8.50001L4.03703 5.29788C4.03703 5.23038 4.03903 5.16213 4.04928 5.09576C4.08828 4.84326 4.20503 4.73201 4.46328 4.71538L6.48916 4.59376L10.5414 4.35651L13.4252 4.19038C13.744 4.17338 13.8818 4.30463 13.9027 4.62501C13.9057 4.67188 13.9042 4.71876 13.9042 4.76563L13.9037 12.8253L13.8993 13.0128C13.8667 13.3584 13.7055 13.5113 13.3568 13.5308L7.76116 13.8506L4.8309 14.0234L4.5659 14.0269C4.21578 14.0069 4.04428 13.8325 4.03753 13.4829L4.03653 12.7016V8.50001ZM9.75728 8.50826L8.14878 6.05763C8.09266 5.97213 8.03753 5.94388 7.93403 5.95513L7.2484 6.00138L5.98715 6.09376C5.67715 6.12213 5.48965 6.41363 5.57553 6.71588L6.24353 6.77301V12.1846L5.78853 12.313C5.58678 12.3725 5.5004 12.5425 5.56828 12.7598L7.10678 12.6714L7.71278 12.6216C7.97403 12.5786 8.11465 12.4185 8.14978 12.1573L7.30853 11.9654V7.89501L7.37103 7.98251L9.30453 11.0015C9.58874 11.4424 9.88062 11.8783 10.18 12.309C10.3934 12.6153 10.7079 12.709 11.0614 12.6328C11.2827 12.5855 11.495 12.4956 11.7118 12.4258C11.8247 12.3891 11.8632 12.3218 11.8627 12.1953L11.8589 6.63276C11.8589 6.30763 11.8589 6.30763 12.1805 6.24276C12.5058 6.17726 12.5873 6.04738 12.513 5.69976L10.5693 5.81788C10.3578 5.83301 10.1977 6.00976 10.1655 6.21538C10.1498 6.31451 10.1703 6.36913 10.2889 6.37601L10.8774 6.44101V10.2134C10.5047 9.64476 10.1313 9.07656 9.75728 8.50876V8.50826ZM11.1937 1.93013C11.5127 2.15048 11.8309 2.37215 12.1482 2.59513C12.3567 2.74089 12.5633 2.88936 12.7679 3.04051C12.8259 3.08351 12.8704 3.14451 12.947 3.22413L12.7869 3.25338L8.61066 3.50388L4.73128 3.74713C4.23853 3.78276 3.8084 3.70163 3.43878 3.35063C3.2439 3.16563 3.0179 3.01276 2.8054 2.84526C2.71603 2.77438 2.62141 2.70851 2.53928 2.62988C2.49491 2.58738 2.43428 2.50988 2.44803 2.47113C2.46653 2.41651 2.54278 2.35601 2.60228 2.34526C2.78103 2.31301 2.96316 2.29976 3.14428 2.28663L9.13803 1.85113L10.3993 1.76313C10.6727 1.74813 10.9383 1.79188 11.1937 1.93013Z" fill="white"/>
<path d="M9.76424 8.5175L10.8776 10.2134V6.44088L10.2892 6.37588C10.1705 6.36913 10.15 6.3145 10.1656 6.21538C10.1979 6.00975 10.3581 5.833 10.5694 5.81788L12.5132 5.69975C12.5875 6.04725 12.506 6.17725 12.1807 6.24263C11.859 6.30713 11.859 6.30713 11.859 6.63275L11.8629 12.1953C11.8634 12.3218 11.8249 12.3891 11.712 12.4258L11.0616 12.6328C10.7081 12.7085 10.3936 12.6153 10.1804 12.309C9.88108 11.8782 9.5892 11.4423 9.30486 11.0015L7.37111 7.98238C7.35749 7.96088 7.34186 7.94088 7.30861 7.895V11.9654L8.14999 12.1573C8.11486 12.4185 7.97424 12.5785 7.71299 12.6216C7.51374 12.6543 7.30924 12.6591 7.10699 12.6714L5.56849 12.7598C5.50061 12.5425 5.58699 12.3725 5.78874 12.313L6.24374 12.1846V6.773L5.57574 6.71588C5.48986 6.41363 5.67736 6.12213 5.98736 6.09375C6.40686 6.05463 6.82824 6.03075 7.24861 6.0015C7.47711 5.98588 7.70661 5.98 7.93424 5.95513C8.03774 5.94388 8.09299 5.97213 8.14899 6.05763L9.76424 8.5175Z" fill="black"/>
</g>
<defs>
<clipPath id="clip0_28_7">
<rect width="16" height="16" fill="white"/>
</clipPath>
</defs>
</svg>
